<svg width="63" height="57" viewBox="0 0 63 57" fill="none" xmlns="http://www.w3.org/2000/svg">
<g filter="url(#filter0_d_527_993)">
<path d="M41.8999 26.3H36.6999V24.35C36.6999 23.991 36.4092 23.7 36.0499 23.7H32.5594C32.4981 23.1073 32.1158 22.3548 31.3698 21.3599C30.6627 20.417 31.0226 20.0174 32.32 19.0271C33.1541 18.3902 34.0999 17.6682 34.0999 16.55C34.0999 14.3388 31.533 12.3494 31.2397 12.1301C30.9534 11.9146 30.5465 11.973 30.3307 12.2596C30.1149 12.5465 30.1727 12.9537 30.4596 13.1695C31.1103 13.6599 32.8 15.2227 32.8 16.55C32.8 17.0251 32.155 17.5173 31.5311 17.9937C30.4394 18.8272 28.7902 20.0865 30.3301 22.14C30.9798 23.0064 31.182 23.4748 31.2451 23.6999H26.95C26.5907 23.6999 26.3 23.991 26.3 24.3499V26.2999H20.45C20.3726 26.2999 20.2983 26.3145 20.2298 26.3412C15.601 26.7814 12 30.7274 12 35.3999C12 40.4177 16.0822 44.4999 21.1 44.4999C24.0987 44.4999 26.8643 43.0488 28.5687 40.5999H34.4314C36.1357 43.0488 38.9014 44.4999 41.9 44.4999C46.9178 44.4999 51 40.4177 51 35.3999C51 30.3821 46.9177 26.3 41.8999 26.3ZM27.6 24.9999H35.4V26.3H27.6V24.9999ZM41.8999 43.1999C39.2263 43.1999 36.7692 41.8538 35.3257 39.5995C35.2063 39.4128 35.0001 39.2999 34.7786 39.2999H28.2215C28 39.2999 27.7936 39.4128 27.6743 39.5995C26.2309 41.8538 23.7737 43.1999 21.1001 43.1999C16.7989 43.1999 13.3001 39.7007 13.3001 35.3999C13.3001 31.3456 16.4625 27.9296 20.4996 27.6228C20.5421 27.6196 20.584 27.6116 20.624 27.5999H26.9501H36.0501H41.9001C46.2013 27.5999 49.7001 31.0991 49.7001 35.3999C49.6999 39.7008 46.2011 43.1999 41.8999 43.1999Z" fill="#007CFF"/>
</g>
<path d="M24.0289 33.1494H23.0501V32.095C23.0501 30.7466 22.0294 29.6494 20.775 29.6494C19.5207 29.6494 18.5 30.7466 18.5 32.095V33.1494H17.5212C16.2688 33.1494 15.25 34.2487 15.25 35.5995C15.25 36.9503 16.2688 38.0495 17.5212 38.0495H18.5V39.1039C18.5 40.4524 19.5207 41.5495 20.775 41.5495C22.0294 41.5495 23.0501 40.4523 23.0501 39.1039V38.0495H24.0289C25.2813 38.0495 26.3001 36.9503 26.3001 35.5995C26.3 34.2487 25.2812 33.1494 24.0289 33.1494ZM24.0289 36.6495H22.4001C22.0408 36.6495 21.7501 36.9629 21.7501 37.3495V39.1039C21.7501 39.6805 21.3127 40.1495 20.7751 40.1495C20.2375 40.1495 19.8001 39.6805 19.8001 39.1039V37.3495C19.8001 36.9628 19.5094 36.6495 19.1501 36.6495H17.5212C16.9855 36.6495 16.55 36.1785 16.55 35.5995C16.55 35.0205 16.9855 34.5495 17.5212 34.5495H19.15C19.5093 34.5495 19.8 34.236 19.8 33.8495V32.095C19.8 31.5184 20.2373 31.0494 20.775 31.0494C21.3126 31.0494 21.75 31.5184 21.75 32.095V33.8495C21.75 34.2361 22.0407 34.5495 22.3999 34.5495H24.0287C24.5644 34.5495 24.9999 35.0205 24.9999 35.5995C24.9999 36.1785 24.5646 36.6495 24.0289 36.6495Z" fill="#007CFF"/>
<g filter="url(#filter1_d_527_993)">
<path d="M36.6996 32.4502C35.2656 32.4502 34.0996 33.7063 34.0996 35.2502C34.0996 36.7941 35.2656 38.0501 36.6996 38.0501C38.1335 38.0501 39.2995 36.7941 39.2995 35.2502C39.2995 33.7063 38.1335 32.4502 36.6996 32.4502ZM36.6996 36.6502C35.983 36.6502 35.3996 36.0223 35.3996 35.2502C35.3996 34.478 35.9829 33.8501 36.6996 33.8501C37.4162 33.8501 37.9996 34.478 37.9996 35.2502C37.9996 36.0223 37.4162 36.6502 36.6996 36.6502Z" fill="#007CFF"/>
</g>
<g filter="url(#filter2_d_527_993)">
<path d="M45.8002 32.4502C44.3662 32.4502 43.2002 33.7063 43.2002 35.2502C43.2002 36.7941 44.3662 38.0501 45.8002 38.0501C47.2341 38.0501 48.4001 36.7941 48.4001 35.2502C48.4001 33.7063 47.2341 32.4502 45.8002 32.4502ZM45.8002 36.6502C45.0835 36.6502 44.5001 36.0223 44.5001 35.2502C44.5001 34.478 45.0835 33.8501 45.8002 33.8501C46.5168 33.8501 47.1002 34.478 47.1002 35.2502C47.1002 36.0223 46.5169 36.6502 45.8002 36.6502Z" fill="#007CFF"/>
</g>
<g filter="url(#filter3_d_527_993)">
<path d="M41.2504 28.25C39.8164 28.25 38.6504 29.5061 38.6504 31.05C38.6504 32.5939 39.8164 33.85 41.2504 33.85C42.6843 33.85 43.8503 32.5939 43.8503 31.05C43.8503 29.5061 42.6843 28.25 41.2504 28.25ZM41.2504 32.45C40.5337 32.45 39.9503 31.8221 39.9503 31.05C39.9503 30.2778 40.5337 29.6499 41.2504 29.6499C41.967 29.6499 42.5504 30.2778 42.5504 31.05C42.5504 31.8221 41.967 32.45 41.2504 32.45Z" fill="#007CFF"/>
</g>
<g filter="url(#filter4_d_527_993)">
<path d="M41.2504 36.6504C39.8164 36.6504 38.6504 37.9065 38.6504 39.4504C38.6504 40.9943 39.8164 42.2503 41.2504 42.2503C42.6843 42.2503 43.8503 40.9943 43.8503 39.4504C43.8503 37.9065 42.6843 36.6504 41.2504 36.6504ZM41.2504 40.8504C40.5337 40.8504 39.9503 40.2225 39.9503 39.4504C39.9503 38.6782 40.5337 38.0503 41.2504 38.0503C41.967 38.0503 42.5504 38.6782 42.5504 39.4504C42.5504 40.2225 41.967 40.8504 41.2504 40.8504Z" fill="#007CFF"/>
</g>
<defs>
<filter id="filter0_d_527_993" x="0.1" y="0.1" width="62.8" height="56.3" filterUnits="userSpaceOnUse" color-interpolation-filters="sRGB">
<feFlood flood-opacity="0" result="BackgroundImageFix"/>
<feColorMatrix in="SourceAlpha" type="matrix" values="0 0 0 0 0 0 0 0 0 0 0 0 0 0 0 0 0 0 127 0" result="hardAlpha"/>
<feOffset/>
<feGaussianBlur stdDeviation="5.95"/>
<feComposite in2="hardAlpha" operator="out"/>
<feColorMatrix type="matrix" values="0 0 0 0 0.133333 0 0 0 0 0.890196 0 0 0 0 0.976471 0 0 0 1 0"/>
<feBlend mode="normal" in2="BackgroundImageFix" result="effect1_dropShadow_527_993"/>
<feBlend mode="normal" in="SourceGraphic" in2="effect1_dropShadow_527_993" result="shape"/>
</filter>
<filter id="filter1_d_527_993" x="22.1996" y="20.5502" width="29.0002" height="29.3996" filterUnits="userSpaceOnUse" color-interpolation-filters="sRGB">
<feFlood flood-opacity="0" result="BackgroundImageFix"/>
<feColorMatrix in="SourceAlpha" type="matrix" values="0 0 0 0 0 0 0 0 0 0 0 0 0 0 0 0 0 0 127 0" result="hardAlpha"/>
<feOffset/>
<feGaussianBlur stdDeviation="5.95"/>
<feComposite in2="hardAlpha" operator="out"/>
<feColorMatrix type="matrix" values="0 0 0 0 0 0 0 0 0 0.486275 0 0 0 0 1 0 0 0 1 0"/>
<feBlend mode="normal" in2="BackgroundImageFix" result="effect1_dropShadow_527_993"/>
<feBlend mode="normal" in="SourceGraphic" in2="effect1_dropShadow_527_993" result="shape"/>
</filter>
<filter id="filter2_d_527_993" x="31.3002" y="20.5502" width="29.0002" height="29.3996" filterUnits="userSpaceOnUse" color-interpolation-filters="sRGB">
<feFlood flood-opacity="0" result="BackgroundImageFix"/>
<feColorMatrix in="SourceAlpha" type="matrix" values="0 0 0 0 0 0 0 0 0 0 0 0 0 0 0 0 0 0 127 0" result="hardAlpha"/>
<feOffset/>
<feGaussianBlur stdDeviation="5.95"/>
<feComposite in2="hardAlpha" operator="out"/>
<feColorMatrix type="matrix" values="0 0 0 0 0 0 0 0 0 0.486275 0 0 0 0 1 0 0 0 1 0"/>
<feBlend mode="normal" in2="BackgroundImageFix" result="effect1_dropShadow_527_993"/>
<feBlend mode="normal" in="SourceGraphic" in2="effect1_dropShadow_527_993" result="shape"/>
</filter>
<filter id="filter3_d_527_993" x="26.7504" y="16.35" width="29.0002" height="29.3996" filterUnits="userSpaceOnUse" color-interpolation-filters="sRGB">
<feFlood flood-opacity="0" result="BackgroundImageFix"/>
<feColorMatrix in="SourceAlpha" type="matrix" values="0 0 0 0 0 0 0 0 0 0 0 0 0 0 0 0 0 0 127 0" result="hardAlpha"/>
<feOffset/>
<feGaussianBlur stdDeviation="5.95"/>
<feComposite in2="hardAlpha" operator="out"/>
<feColorMatrix type="matrix" values="0 0 0 0 0 0 0 0 0 0.486275 0 0 0 0 1 0 0 0 1 0"/>
<feBlend mode="normal" in2="BackgroundImageFix" result="effect1_dropShadow_527_993"/>
<feBlend mode="normal" in="SourceGraphic" in2="effect1_dropShadow_527_993" result="shape"/>
</filter>
<filter id="filter4_d_527_993" x="26.7504" y="24.7504" width="29.0002" height="29.3996" filterUnits="userSpaceOnUse" color-interpolation-filters="sRGB">
<feFlood flood-opacity="0" result="BackgroundImageFix"/>
<feColorMatrix in="SourceAlpha" type="matrix" values="0 0 0 0 0 0 0 0 0 0 0 0 0 0 0 0 0 0 127 0" result="hardAlpha"/>
<feOffset/>
<feGaussianBlur stdDeviation="5.95"/>
<feComposite in2="hardAlpha" operator="out"/>
<feColorMatrix type="matrix" values="0 0 0 0 0 0 0 0 0 0.486275 0 0 0 0 1 0 0 0 1 0"/>
<feBlend mode="normal" in2="BackgroundImageFix" result="effect1_dropShadow_527_993"/>
<feBlend mode="normal" in="SourceGraphic" in2="effect1_dropShadow_527_993" result="shape"/>
</filter>
</defs>
</svg>
